<svg xmlns="http://www.w3.org/2000/svg" viewBox="0 0 24 24" x="0px" y="0px"><title>Architect &amp;amp; CAD - 35 Icon Set - Expanded - 24 - Stroke 1.5 - 2019</title><g data-name="Layer 3"><path d="M20,6.75H4a.75.75,0,0,1,0-1.5H20a.75.75,0,0,1,0,1.5Z"/><path d="M20,10H4A1,1,0,0,1,4,8H20a1,1,0,0,1,0,2Z"/><path d="M20,14.5H4a1.5,1.5,0,0,1,0-3H20a1.5,1.5,0,0,1,0,3Z"/><path d="M20,20H4a2,2,0,0,1,0-4H20a2,2,0,0,1,0,4Z"/></g><text x="0" y="39" fill="#000000" font-size="5px" font-weight="bold" font-family="'Helvetica Neue', Helvetica, Arial-Unicode, Arial, Sans-serif">Created by Ian Rahmadi Kurniawan</text><text x="0" y="44" fill="#000000" font-size="5px" font-weight="bold" font-family="'Helvetica Neue', Helvetica, Arial-Unicode, Arial, Sans-serif">from the Noun Project</text></svg>